<svg id="visual" viewBox="0 0 1920 1080" width="1920" height="1080" xmlns="http://www.w3.org/2000/svg" xmlns:xlink="http://www.w3.org/1999/xlink" version="1.1"><rect x="0" y="0" width="1920" height="1080" fill="#001220"></rect><defs><linearGradient id="grad1_0" x1="43.8%" y1="0%" x2="100%" y2="100%"><stop offset="14.444444444444446%" stop-color="#4facf7" stop-opacity="1"></stop><stop offset="85.55555555555554%" stop-color="#4facf7" stop-opacity="1"></stop></linearGradient></defs><defs><linearGradient id="grad1_1" x1="43.8%" y1="0%" x2="100%" y2="100%"><stop offset="14.444444444444446%" stop-color="#4facf7" stop-opacity="1"></stop><stop offset="85.55555555555554%" stop-color="#3982bb" stop-opacity="1"></stop></linearGradient></defs><defs><linearGradient id="grad1_2" x1="43.8%" y1="0%" x2="100%" y2="100%"><stop offset="14.444444444444446%" stop-color="#245983" stop-opacity="1"></stop><stop offset="85.55555555555554%" stop-color="#3982bb" stop-opacity="1"></stop></linearGradient></defs><defs><linearGradient id="grad1_3" x1="43.8%" y1="0%" x2="100%" y2="100%"><stop offset="14.444444444444446%" stop-color="#245983" stop-opacity="1"></stop><stop offset="85.55555555555554%" stop-color="#11344f" stop-opacity="1"></stop></linearGradient></defs><defs><linearGradient id="grad1_4" x1="43.8%" y1="0%" x2="100%" y2="100%"><stop offset="14.444444444444446%" stop-color="#001220" stop-opacity="1"></stop><stop offset="85.55555555555554%" stop-color="#11344f" stop-opacity="1"></stop></linearGradient></defs><defs><linearGradient id="grad2_0" x1="0%" y1="0%" x2="56.3%" y2="100%"><stop offset="14.444444444444446%" stop-color="#4facf7" stop-opacity="1"></stop><stop offset="85.55555555555554%" stop-color="#4facf7" stop-opacity="1"></stop></linearGradient></defs><defs><linearGradient id="grad2_1" x1="0%" y1="0%" x2="56.3%" y2="100%"><stop offset="14.444444444444446%" stop-color="#3982bb" stop-opacity="1"></stop><stop offset="85.55555555555554%" stop-color="#4facf7" stop-opacity="1"></stop></linearGradient></defs><defs><linearGradient id="grad2_2" x1="0%" y1="0%" x2="56.3%" y2="100%"><stop offset="14.444444444444446%" stop-color="#3982bb" stop-opacity="1"></stop><stop offset="85.55555555555554%" stop-color="#245983" stop-opacity="1"></stop></linearGradient></defs><defs><linearGradient id="grad2_3" x1="0%" y1="0%" x2="56.3%" y2="100%"><stop offset="14.444444444444446%" stop-color="#11344f" stop-opacity="1"></stop><stop offset="85.55555555555554%" stop-color="#245983" stop-opacity="1"></stop></linearGradient></defs><defs><linearGradient id="grad2_4" x1="0%" y1="0%" x2="56.3%" y2="100%"><stop offset="14.444444444444446%" stop-color="#11344f" stop-opacity="1"></stop><stop offset="85.55555555555554%" stop-color="#001220" stop-opacity="1"></stop></linearGradient></defs><g transform="translate(1920, 0)"><path d="M0 1080C-85.5 1022.1 -170.9 964.3 -246.7 920.5C-322.4 876.8 -388.4 847.1 -479 829.7C-569.6 812.2 -685 807.1 -753.8 753.8C-822.6 700.5 -844.9 599 -891.1 514.5C-937.4 430 -1007.7 362.4 -1043.2 279.5C-1078.7 196.6 -1079.3 98.3 -1080 0L0 0Z" fill="#092336"></path><path d="M0 864C-68.4 817.7 -136.7 771.4 -197.3 736.4C-257.9 701.4 -310.7 677.7 -383.2 663.7C-455.7 649.8 -548 645.7 -603 603C-658.1 560.4 -675.9 479.2 -712.9 411.6C-749.9 344 -806.2 290 -834.6 223.6C-862.9 157.3 -863.5 78.6 -864 0L0 0Z" fill="#1a4668"></path><path d="M0 648C-51.3 613.3 -102.6 578.6 -148 552.3C-193.4 526.1 -233 508.2 -287.4 497.8C-341.8 487.3 -411 484.2 -452.3 452.3C-493.5 420.3 -506.9 359.4 -534.7 308.7C-562.5 258 -604.6 217.5 -625.9 167.7C-647.2 118 -647.6 59 -648 0L0 0Z" fill="#2e6d9f"></path><path d="M0 432C-34.2 408.9 -68.4 385.7 -98.7 368.2C-129 350.7 -155.3 338.8 -191.6 331.9C-227.9 324.9 -274 322.8 -301.5 301.5C-329 280.2 -337.9 239.6 -356.5 205.8C-375 172 -403.1 145 -417.3 111.8C-431.5 78.6 -431.7 39.3 -432 0L0 0Z" fill="#4496d9"></path><path d="M0 216C-17.1 204.4 -34.2 192.9 -49.3 184.1C-64.5 175.4 -77.7 169.4 -95.8 165.9C-113.9 162.4 -137 161.4 -150.8 150.8C-164.5 140.1 -169 119.8 -178.2 102.9C-187.5 86 -201.5 72.5 -208.6 55.9C-215.7 39.3 -215.9 19.7 -216 0L0 0Z" fill="#4facf7"></path></g><g transform="translate(0, 1080)"><path d="M0 -1080C106.4 -1095.6 212.9 -1111.2 279.5 -1043.2C346.2 -975.2 373 -823.6 435.5 -754.3C498 -685 596.3 -698 664.7 -664.7C733.1 -631.3 771.7 -551.7 836.6 -483C901.4 -414.3 992.5 -356.6 1037.4 -278C1082.3 -199.3 1081.2 -99.7 1080 0L0 0Z" fill="#092336"></path><path d="M0 -864C85.2 -876.5 170.3 -889 223.6 -834.6C276.9 -780.2 298.4 -658.9 348.4 -603.4C398.4 -548 477 -558.4 531.7 -531.7C586.5 -505.1 617.4 -441.3 669.3 -386.4C721.1 -331.5 794 -285.3 829.9 -222.4C865.9 -159.4 864.9 -79.7 864 0L0 0Z" fill="#1a4668"></path><path d="M0 -648C63.9 -657.4 127.7 -666.7 167.7 -625.9C207.7 -585.1 223.8 -494.2 261.3 -452.6C298.8 -411 357.8 -418.8 398.8 -398.8C439.9 -378.8 463 -331 501.9 -289.8C540.9 -248.6 595.5 -214 622.4 -166.8C649.4 -119.6 648.7 -59.8 648 0L0 0Z" fill="#2e6d9f"></path><path d="M0 -432C42.6 -438.2 85.2 -444.5 111.8 -417.3C138.5 -390.1 149.2 -329.4 174.2 -301.7C199.2 -274 238.5 -279.2 265.9 -265.9C293.2 -252.5 308.7 -220.7 334.6 -193.2C360.6 -165.7 397 -142.7 415 -111.2C432.9 -79.7 432.5 -39.9 432 0L0 0Z" fill="#4496d9"></path><path d="M0 -216C21.3 -219.1 42.6 -222.2 55.9 -208.6C69.2 -195 74.6 -164.7 87.1 -150.9C99.6 -137 119.3 -139.6 132.9 -132.9C146.6 -126.3 154.3 -110.3 167.3 -96.6C180.3 -82.9 198.5 -71.3 207.5 -55.6C216.5 -39.9 216.2 -19.9 216 0L0 0Z" fill="#4facf7"></path></g></svg>
