<svg id="visual" viewBox="0 0 1920 1080" width="1920" height="1080" xmlns="http://www.w3.org/2000/svg" xmlns:xlink="http://www.w3.org/1999/xlink" version="1.1"><rect x="0" y="0" width="1920" height="1080" fill="#1f1f1f"></rect><defs><linearGradient id="grad1_0" x1="43.8%" y1="0%" x2="100%" y2="100%"><stop offset="14.444444444444446%" stop-color="#f7770f" stop-opacity="1"></stop><stop offset="85.55555555555554%" stop-color="#f7770f" stop-opacity="1"></stop></linearGradient></defs><defs><linearGradient id="grad1_1" x1="43.8%" y1="0%" x2="100%" y2="100%"><stop offset="14.444444444444446%" stop-color="#f7770f" stop-opacity="1"></stop><stop offset="85.55555555555554%" stop-color="#c9651b" stop-opacity="1"></stop></linearGradient></defs><defs><linearGradient id="grad1_2" x1="43.8%" y1="0%" x2="100%" y2="100%"><stop offset="14.444444444444446%" stop-color="#9c5320" stop-opacity="1"></stop><stop offset="85.55555555555554%" stop-color="#c9651b" stop-opacity="1"></stop></linearGradient></defs><defs><linearGradient id="grad1_3" x1="43.8%" y1="0%" x2="100%" y2="100%"><stop offset="14.444444444444446%" stop-color="#9c5320" stop-opacity="1"></stop><stop offset="85.55555555555554%" stop-color="#714121" stop-opacity="1"></stop></linearGradient></defs><defs><linearGradient id="grad1_4" x1="43.8%" y1="0%" x2="100%" y2="100%"><stop offset="14.444444444444446%" stop-color="#483021" stop-opacity="1"></stop><stop offset="85.55555555555554%" stop-color="#714121" stop-opacity="1"></stop></linearGradient></defs><defs><linearGradient id="grad1_5" x1="43.8%" y1="0%" x2="100%" y2="100%"><stop offset="14.444444444444446%" stop-color="#483021" stop-opacity="1"></stop><stop offset="85.55555555555554%" stop-color="#1f1f1f" stop-opacity="1"></stop></linearGradient></defs><defs><linearGradient id="grad2_0" x1="0%" y1="0%" x2="56.3%" y2="100%"><stop offset="14.444444444444446%" stop-color="#f7770f" stop-opacity="1"></stop><stop offset="85.55555555555554%" stop-color="#f7770f" stop-opacity="1"></stop></linearGradient></defs><defs><linearGradient id="grad2_1" x1="0%" y1="0%" x2="56.3%" y2="100%"><stop offset="14.444444444444446%" stop-color="#c9651b" stop-opacity="1"></stop><stop offset="85.55555555555554%" stop-color="#f7770f" stop-opacity="1"></stop></linearGradient></defs><defs><linearGradient id="grad2_2" x1="0%" y1="0%" x2="56.3%" y2="100%"><stop offset="14.444444444444446%" stop-color="#c9651b" stop-opacity="1"></stop><stop offset="85.55555555555554%" stop-color="#9c5320" stop-opacity="1"></stop></linearGradient></defs><defs><linearGradient id="grad2_3" x1="0%" y1="0%" x2="56.3%" y2="100%"><stop offset="14.444444444444446%" stop-color="#714121" stop-opacity="1"></stop><stop offset="85.55555555555554%" stop-color="#9c5320" stop-opacity="1"></stop></linearGradient></defs><defs><linearGradient id="grad2_4" x1="0%" y1="0%" x2="56.3%" y2="100%"><stop offset="14.444444444444446%" stop-color="#714121" stop-opacity="1"></stop><stop offset="85.55555555555554%" stop-color="#483021" stop-opacity="1"></stop></linearGradient></defs><defs><linearGradient id="grad2_5" x1="0%" y1="0%" x2="56.3%" y2="100%"><stop offset="14.444444444444446%" stop-color="#1f1f1f" stop-opacity="1"></stop><stop offset="85.55555555555554%" stop-color="#483021" stop-opacity="1"></stop></linearGradient></defs><g transform="translate(1920, 0)"><path d="M0 1080C-97.8 1069.9 -195.7 1059.8 -269.9 1007.5C-344.2 955.1 -394.9 860.4 -470 814.1C-545.1 767.7 -644.7 769.8 -734.7 734.7C-824.7 699.6 -905.1 627.4 -935.3 540C-965.5 452.6 -945.4 350.1 -961.1 257.5C-976.8 165 -1028.4 82.5 -1080 0L0 0Z" fill="#342720"></path><path d="M0 900C-81.5 891.6 -163.1 883.2 -225 839.6C-286.8 795.9 -329.1 717 -391.7 678.4C-454.3 639.8 -537.2 641.5 -612.2 612.2C-687.2 583 -754.3 522.8 -779.4 450C-804.6 377.2 -787.8 291.7 -800.9 214.6C-814 137.5 -857 68.7 -900 0L0 0Z" fill="#5c3821"></path><path d="M0 720C-65.2 713.3 -130.5 706.6 -180 671.6C-229.5 636.7 -263.3 573.6 -313.3 542.7C-363.4 511.8 -429.8 513.2 -489.8 489.8C-549.8 466.4 -603.4 418.3 -623.5 360C-643.7 301.7 -630.2 233.4 -640.7 171.7C-651.2 110 -685.6 55 -720 0L0 0Z" fill="#864a21"></path><path d="M0 540C-48.9 535 -97.8 529.9 -135 503.7C-172.1 477.5 -197.4 430.2 -235 407C-272.6 383.9 -322.3 384.9 -367.3 367.3C-412.3 349.8 -452.6 313.7 -467.7 270C-482.7 226.3 -472.7 175 -480.5 128.8C-488.4 82.5 -514.2 41.2 -540 0L0 0Z" fill="#b25c1e"></path><path d="M0 360C-32.6 356.6 -65.2 353.3 -90 335.8C-114.7 318.4 -131.6 286.8 -156.7 271.4C-181.7 255.9 -214.9 256.6 -244.9 244.9C-274.9 233.2 -301.7 209.1 -311.8 180C-321.8 150.9 -315.1 116.7 -320.4 85.8C-325.6 55 -342.8 27.5 -360 0L0 0Z" fill="#e06e16"></path><path d="M0 180C-16.3 178.3 -32.6 176.6 -45 167.9C-57.4 159.2 -65.8 143.4 -78.3 135.7C-90.9 128 -107.4 128.3 -122.4 122.4C-137.4 116.6 -150.9 104.6 -155.9 90C-160.9 75.4 -157.6 58.3 -160.2 42.9C-162.8 27.5 -171.4 13.7 -180 0L0 0Z" fill="#f7770f"></path></g><g transform="translate(0, 1080)"><path d="M0 -1080C83.4 -1019.6 166.9 -959.3 246.1 -918.6C325.4 -877.9 400.4 -857 479 -829.7C557.6 -802.3 639.6 -768.6 722.7 -722.7C805.7 -676.7 889.8 -618.5 935.3 -540C980.8 -461.5 987.8 -362.8 1005.5 -269.4C1023.2 -176.1 1051.6 -88 1080 0L0 0Z" fill="#342720"></path><path d="M0 -900C69.5 -849.7 139.1 -799.4 205.1 -765.5C271.2 -731.6 333.7 -714.1 399.2 -691.4C464.6 -668.6 533 -640.5 602.2 -602.2C671.4 -563.9 741.5 -515.4 779.4 -450C817.4 -384.6 823.2 -302.3 837.9 -224.5C852.7 -146.7 876.3 -73.4 900 0L0 0Z" fill="#5c3821"></path><path d="M0 -720C55.6 -679.8 111.3 -639.5 164.1 -612.4C216.9 -585.3 267 -571.3 319.3 -553.1C371.7 -534.9 426.4 -512.4 481.8 -481.8C537.1 -451.1 593.2 -412.3 623.5 -360C653.9 -307.7 658.6 -241.9 670.4 -179.6C682.1 -117.4 701.1 -58.7 720 0L0 0Z" fill="#864a21"></path><path d="M0 -540C41.7 -509.8 83.4 -479.6 123.1 -459.3C162.7 -439 200.2 -428.5 239.5 -414.8C278.8 -401.2 319.8 -384.3 361.3 -361.3C402.9 -338.4 444.9 -309.2 467.7 -270C490.4 -230.8 493.9 -181.4 502.8 -134.7C511.6 -88 525.8 -44 540 0L0 0Z" fill="#b25c1e"></path><path d="M0 -360C27.8 -339.9 55.6 -319.8 82 -306.2C108.5 -292.6 133.5 -285.7 159.7 -276.6C185.9 -267.4 213.2 -256.2 240.9 -240.9C268.6 -225.6 296.6 -206.2 311.8 -180C326.9 -153.8 329.3 -120.9 335.2 -89.8C341.1 -58.7 350.5 -29.3 360 0L0 0Z" fill="#e06e16"></path><path d="M0 -180C13.9 -169.9 27.8 -159.9 41 -153.1C54.2 -146.3 66.7 -142.8 79.8 -138.3C92.9 -133.7 106.6 -128.1 120.4 -120.4C134.3 -112.8 148.3 -103.1 155.9 -90C163.5 -76.9 164.6 -60.5 167.6 -44.9C170.5 -29.3 175.3 -14.7 180 0L0 0Z" fill="#f7770f"></path></g></svg>